<svg xmlns="http://www.w3.org/2000/svg" xmlns:xlink="http://www.w3.org/1999/xlink" width="164" zoomAndPan="magnify" viewBox="0 0 123 37.5" height="50" preserveAspectRatio="xMidYMid meet" version="1.0"><defs><g/><clipPath id="id1"><path d="M 0.808594 0 L 37.816406 0 L 37.816406 37.007812 L 0.808594 37.007812 Z M 0.808594 0 " clip-rule="nonzero"/></clipPath><clipPath id="id2"><path d="M 7.457031 7.511719 L 31.144531 7.511719 L 31.144531 29.714844 L 7.457031 29.714844 Z M 7.457031 7.511719 " clip-rule="nonzero"/></clipPath></defs><path fill="#ffffff" d="M 36.628906 29.160156 C 36.628906 32.835938 33.644531 35.820312 29.96875 35.820312 L 8.65625 35.820312 C 4.980469 35.820312 1.996094 32.835938 1.996094 29.160156 L 1.996094 7.847656 C 1.996094 4.167969 4.980469 1.1875 8.65625 1.1875 L 29.96875 1.1875 C 33.648438 1.1875 36.628906 4.167969 36.628906 7.847656 Z M 36.628906 29.160156 " fill-opacity="1" fill-rule="nonzero"/><g clip-path="url(#id1)"><path fill="#2cb1bc" d="M 29.96875 37.007812 L 8.65625 37.007812 C 4.328125 37.007812 0.808594 33.484375 0.808594 29.160156 L 0.808594 7.847656 C 0.808594 3.519531 4.328125 0 8.65625 0 L 29.96875 0 C 34.292969 0 37.816406 3.519531 37.816406 7.847656 L 37.816406 29.160156 C 37.816406 33.484375 34.292969 37.007812 29.96875 37.007812 Z M 8.65625 2.375 C 5.640625 2.375 3.183594 4.832031 3.183594 7.847656 L 3.183594 29.160156 C 3.183594 32.175781 5.640625 34.632812 8.65625 34.632812 L 29.96875 34.632812 C 32.984375 34.632812 35.441406 32.175781 35.441406 29.160156 L 35.441406 7.847656 C 35.441406 4.832031 32.984375 2.375 29.96875 2.375 Z M 8.65625 2.375 " fill-opacity="1" fill-rule="nonzero"/></g><g clip-path="url(#id2)"><path fill="#2cb1bc" d="M 27.730469 26.585938 C 29.898438 24.554688 31.09375 21.71875 31.09375 18.613281 C 31.09375 15.507812 29.898438 12.675781 27.730469 10.640625 C 25.570312 8.621094 22.585938 7.511719 19.292969 7.511719 C 16.015625 7.511719 13.019531 8.621094 10.859375 10.640625 C 8.691406 12.675781 7.496094 15.507812 7.496094 18.613281 C 7.496094 21.71875 8.691406 24.554688 10.859375 26.585938 C 13.019531 28.605469 16.015625 29.714844 19.292969 29.714844 C 22.585938 29.714844 25.570312 28.605469 27.730469 26.585938 Z M 19.292969 14.214844 C 21.585938 14.214844 23.132812 15.976562 23.132812 18.613281 C 23.132812 21.25 21.585938 23.011719 19.292969 23.011719 C 17.003906 23.011719 15.457031 21.25 15.457031 18.613281 C 15.457031 15.976562 17.003906 14.214844 19.292969 14.214844 Z M 19.292969 14.214844 " fill-opacity="1" fill-rule="nonzero"/></g><g fill="#2cb1bc" fill-opacity="1"><g transform="translate(40.873113, 21.833882)"><g><path d="M 6.535156 -2.332031 L 6.535156 -4.941406 C 6.535156 -6.691406 4.875 -7.441406 3.558594 -7.441406 C 2.246094 -7.441406 0.609375 -6.691406 0.609375 -4.941406 L 0.609375 -2.332031 C 0.609375 -0.585938 2.246094 0.164062 3.558594 0.164062 C 4.875 0.164062 6.535156 -0.585938 6.535156 -2.332031 Z M 4.800781 -4.789062 L 4.800781 -2.488281 C 4.800781 -1.78125 4.289062 -1.371094 3.558594 -1.371094 C 2.839844 -1.371094 2.332031 -1.78125 2.332031 -2.488281 L 2.332031 -4.789062 C 2.332031 -5.496094 2.839844 -5.90625 3.558594 -5.90625 C 4.289062 -5.90625 4.800781 -5.496094 4.800781 -4.789062 Z M 4.800781 -4.789062 "/></g></g></g><g fill="#2cb1bc" fill-opacity="1"><g transform="translate(49.83977, 21.833882)"><g><path d="M 6.425781 -2.15625 C 6.425781 -2.421875 6.335938 -2.53125 6.09375 -2.53125 L 5.007812 -2.53125 C 4.765625 -2.53125 4.742188 -2.355469 4.710938 -2.132812 C 4.621094 -1.601562 4.148438 -1.382812 3.550781 -1.382812 C 2.820312 -1.382812 2.320312 -1.78125 2.320312 -2.488281 L 2.320312 -4.789062 C 2.320312 -5.484375 2.820312 -5.894531 3.550781 -5.894531 C 4.148438 -5.894531 4.457031 -5.726562 4.6875 -5.363281 C 4.777344 -5.230469 4.789062 -5.019531 5.019531 -5.019531 L 6.082031 -5.019531 C 6.335938 -5.019531 6.425781 -5.074219 6.425781 -5.339844 C 6.28125 -6.746094 4.921875 -7.441406 3.550781 -7.441406 C 2.234375 -7.441406 0.585938 -6.679688 0.585938 -4.941406 L 0.585938 -2.332031 C 0.585938 -0.597656 2.234375 0.164062 3.550781 0.164062 C 4.921875 0.164062 6.425781 -0.730469 6.425781 -2.15625 Z M 6.425781 -2.15625 "/></g></g></g><g fill="#2cb1bc" fill-opacity="1"><g transform="translate(58.662706, 21.833882)"><g><path d="M 6.425781 -2.15625 C 6.425781 -2.421875 6.335938 -2.53125 6.09375 -2.53125 L 5.007812 -2.53125 C 4.765625 -2.53125 4.742188 -2.355469 4.710938 -2.132812 C 4.621094 -1.601562 4.148438 -1.382812 3.550781 -1.382812 C 2.820312 -1.382812 2.320312 -1.78125 2.320312 -2.488281 L 2.320312 -4.789062 C 2.320312 -5.484375 2.820312 -5.894531 3.550781 -5.894531 C 4.148438 -5.894531 4.457031 -5.726562 4.6875 -5.363281 C 4.777344 -5.230469 4.789062 -5.019531 5.019531 -5.019531 L 6.082031 -5.019531 C 6.335938 -5.019531 6.425781 -5.074219 6.425781 -5.339844 C 6.28125 -6.746094 4.921875 -7.441406 3.550781 -7.441406 C 2.234375 -7.441406 0.585938 -6.679688 0.585938 -4.941406 L 0.585938 -2.332031 C 0.585938 -0.597656 2.234375 0.164062 3.550781 0.164062 C 4.921875 0.164062 6.425781 -0.730469 6.425781 -2.15625 Z M 6.425781 -2.15625 "/></g></g></g><g fill="#2cb1bc" fill-opacity="1"><g transform="translate(67.48564, 21.833882)"><g><path d="M 6.257812 -7.277344 L 5.164062 -7.277344 C 4.964844 -7.277344 4.84375 -7.210938 4.84375 -6.957031 L 4.84375 -2.464844 C 4.84375 -1.769531 4.378906 -1.371094 3.648438 -1.371094 C 2.917969 -1.371094 2.464844 -1.769531 2.464844 -2.464844 L 2.464844 -6.957031 C 2.464844 -7.210938 2.34375 -7.277344 2.144531 -7.277344 L 1.050781 -7.277344 C 0.851562 -7.277344 0.730469 -7.210938 0.730469 -6.957031 L 0.730469 -2.222656 C 0.730469 -0.488281 2.332031 0.164062 3.648438 0.164062 C 4.964844 0.164062 6.578125 -0.488281 6.578125 -2.222656 L 6.578125 -6.957031 C 6.578125 -7.210938 6.457031 -7.277344 6.257812 -7.277344 Z M 6.257812 -7.277344 "/></g></g></g><g fill="#2cb1bc" fill-opacity="1"><g transform="translate(76.629188, 21.833882)"><g><path d="M 5.738281 -7.277344 L 0.609375 -7.277344 C 0.355469 -7.277344 0.289062 -7.152344 0.289062 -6.957031 L 0.289062 -6.039062 C 0.289062 -5.839844 0.355469 -5.714844 0.609375 -5.714844 L 2.3125 -5.714844 L 2.3125 -0.320312 C 2.3125 -0.0664062 2.433594 0 2.632812 0 L 3.726562 0 C 3.925781 0 4.046875 -0.0664062 4.046875 -0.320312 L 4.046875 -5.714844 L 5.738281 -5.714844 C 5.992188 -5.714844 6.058594 -5.839844 6.058594 -6.039062 L 6.058594 -6.957031 C 6.058594 -7.152344 5.992188 -7.277344 5.738281 -7.277344 Z M 5.738281 -7.277344 "/></g></g></g><g fill="#2cb1bc" fill-opacity="1"><g transform="translate(84.810891, 21.833882)"><g><path d="M 6.777344 -0.355469 L 5.21875 -2.621094 C 5.90625 -2.851562 6.757812 -3.660156 6.757812 -4.820312 C 6.757812 -5.527344 6.523438 -6.160156 6.113281 -6.558594 C 5.652344 -7.023438 5.121094 -7.265625 3.914062 -7.265625 L 1.128906 -7.265625 C 0.875 -7.265625 0.816406 -7.144531 0.816406 -6.945312 L 0.816406 -0.320312 C 0.816406 -0.0664062 0.929688 0 1.128906 0 L 2.222656 0 C 2.421875 0 2.542969 -0.0664062 2.542969 -0.320312 L 2.542969 -5.714844 L 4.015625 -5.714844 C 4.589844 -5.714844 5.03125 -5.351562 5.03125 -4.777344 C 5.03125 -4.257812 4.523438 -3.882812 3.980469 -3.882812 L 3.757812 -3.882812 C 3.503906 -3.882812 3.4375 -3.757812 3.4375 -3.558594 L 3.4375 -2.675781 C 3.4375 -2.367188 3.460938 -2.246094 3.558594 -2.113281 L 4.753906 -0.332031 C 4.910156 -0.0976562 5.042969 0 5.308594 0 L 6.613281 0 C 6.824219 0 6.878906 -0.199219 6.777344 -0.355469 Z M 6.777344 -0.355469 "/></g></g></g><g fill="#2cb1bc" fill-opacity="1"><g transform="translate(94.00971, 21.833882)"><g><path d="M 7.078125 -0.308594 L 4.632812 -6.933594 C 4.535156 -7.164062 4.421875 -7.277344 4.179688 -7.277344 L 3.117188 -7.277344 C 2.875 -7.277344 2.753906 -7.164062 2.664062 -6.933594 L 0.210938 -0.308594 C 0.15625 -0.175781 0.15625 0 0.398438 0 L 1.558594 0 C 1.800781 0 1.890625 -0.0664062 1.980469 -0.332031 L 2.289062 -1.207031 L 4.996094 -1.207031 L 5.308594 -0.332031 C 5.394531 -0.0664062 5.484375 0 5.726562 0 L 6.890625 0 C 7.132812 0 7.132812 -0.175781 7.078125 -0.308594 Z M 3.648438 -5.195312 L 4.476562 -2.753906 L 2.820312 -2.753906 Z M 3.648438 -5.195312 "/></g></g></g><g fill="#2cb1bc" fill-opacity="1"><g transform="translate(103.08692, 21.833882)"><g><path d="M 6.425781 -2.15625 C 6.425781 -2.421875 6.335938 -2.53125 6.09375 -2.53125 L 5.007812 -2.53125 C 4.765625 -2.53125 4.742188 -2.355469 4.710938 -2.132812 C 4.621094 -1.601562 4.148438 -1.382812 3.550781 -1.382812 C 2.820312 -1.382812 2.320312 -1.78125 2.320312 -2.488281 L 2.320312 -4.789062 C 2.320312 -5.484375 2.820312 -5.894531 3.550781 -5.894531 C 4.148438 -5.894531 4.457031 -5.726562 4.6875 -5.363281 C 4.777344 -5.230469 4.789062 -5.019531 5.019531 -5.019531 L 6.082031 -5.019531 C 6.335938 -5.019531 6.425781 -5.074219 6.425781 -5.339844 C 6.28125 -6.746094 4.921875 -7.441406 3.550781 -7.441406 C 2.234375 -7.441406 0.585938 -6.679688 0.585938 -4.941406 L 0.585938 -2.332031 C 0.585938 -0.597656 2.234375 0.164062 3.550781 0.164062 C 4.921875 0.164062 6.425781 -0.730469 6.425781 -2.15625 Z M 6.425781 -2.15625 "/></g></g></g><g fill="#2cb1bc" fill-opacity="1"><g transform="translate(111.909857, 21.833882)"><g><path d="M 6.878906 -7.277344 L 5.386719 -7.277344 C 5.128906 -7.277344 5.054688 -7.253906 4.832031 -7.011719 L 2.542969 -4.488281 L 2.542969 -6.957031 C 2.542969 -7.210938 2.421875 -7.277344 2.234375 -7.277344 L 1.140625 -7.277344 C 0.929688 -7.277344 0.816406 -7.210938 0.816406 -6.957031 L 0.816406 -0.320312 C 0.816406 -0.0664062 0.929688 0 1.140625 0 L 2.234375 0 C 2.421875 0 2.542969 -0.0664062 2.542969 -0.320312 L 2.542969 -2.289062 L 3.230469 -3.007812 C 3.824219 -2.011719 4.808594 -0.355469 4.808594 -0.355469 C 4.953125 -0.121094 5.097656 0 5.363281 0 L 6.710938 0 C 6.921875 0 6.964844 -0.210938 6.878906 -0.355469 L 4.5 -4.269531 L 6.988281 -6.964844 C 7.089844 -7.066406 7.089844 -7.277344 6.878906 -7.277344 Z M 6.878906 -7.277344 "/></g></g></g></svg>